<svg xmlns="http://www.w3.org/2000/svg" width="1200" height="700" viewBox="0 0 1200 700"><defs><marker id="arrow" viewBox="0 0 10 10" refX="9" refY="5" markerWidth="8" markerHeight="8" orient="auto"><path d="M0 0 L10 5 L0 10 z" fill="#334155"/></marker><marker id="arrowB" viewBox="0 0 10 10" refX="9" refY="5" markerWidth="8" markerHeight="8" orient="auto"><path d="M0 0 L10 5 L0 10 z" fill="#2563eb"/></marker><marker id="arrowG" viewBox="0 0 10 10" refX="9" refY="5" markerWidth="8" markerHeight="8" orient="auto"><path d="M0 0 L10 5 L0 10 z" fill="#16a34a"/></marker></defs><rect width="1200" height="700" fill="#f8fafc"/><rect x="24" y="24" width="1152" height="652" rx="24" fill="white" stroke="#cbd5e1" stroke-width="2"/><text x="60" y="60" font-size="34" font-weight="700" fill="#0f172a" font-family="Arial">Güneş hücresinin büyük resmi</text><text x="60" y="92" font-size="22" fill="#64748b" font-family="Arial">Işık, p-n eklemi ve dış devre</text><circle cx="130" cy="170" r="48" fill="#fde68a" stroke="#f59e0b" stroke-width="4"/><line x1="360" y1="130" x2="360" y2="170" stroke="#f59e0b" stroke-width="4" marker-end="url(#arrow)"/><line x1="460" y1="118" x2="460" y2="170" stroke="#f59e0b" stroke-width="4" marker-end="url(#arrow)"/><line x1="560" y1="106" x2="560" y2="170" stroke="#f59e0b" stroke-width="4" marker-end="url(#arrow)"/><rect x="300" y="170" width="600" height="250" rx="24" fill="#eff6ff" stroke="#60a5fa" stroke-width="3"/><rect x="300" y="225" width="600" height="195" fill="#fef3c7"/><line x1="300" y1="225" x2="900" y2="225" stroke="#dc2626" stroke-width="4"/><text x="330" y="206" font-size="24" font-weight="700" fill="#2563eb" font-family="Arial">n-tipi</text><text x="330" y="270" font-size="24" font-weight="700" fill="#b45309" font-family="Arial">p-tipi</text><text x="520" y="215" font-size="19" fill="#dc2626" font-family="Arial">p-n eklemi</text><circle cx="505" cy="250" r="13" fill="#2563eb"/><circle cx="685" cy="290" r="13" fill="white" stroke="#dc2626" stroke-width="4"/><text x="530" y="256" font-size="22" fill="#334155" font-family="Arial">elektron</text><text x="710" y="296" font-size="22" fill="#334155" font-family="Arial">delik</text><line x1="900" y1="190" x2="1015" y2="190" stroke="#94a3b8" stroke-width="10"/><line x1="300" y1="400" x2="200" y2="400" stroke="#94a3b8" stroke-width="10"/><path d="M1015 190 L1060 190 L1060 500 L210 500 L210 400" fill="none" stroke="#16a34a" stroke-width="6"/><rect x="620" y="470" width="110" height="60" rx="12" fill="white" stroke="#334155" stroke-width="3"/><text x="750" y="508" font-size="24" fill="#334155" font-family="Arial">Dış devrede iş yapılır</text></svg>