<svg xmlns="http://www.w3.org/2000/svg" width="1200" height="700" viewBox="0 0 1200 700"><defs><marker id="arrow" viewBox="0 0 10 10" refX="9" refY="5" markerWidth="8" markerHeight="8" orient="auto"><path d="M0 0 L10 5 L0 10 z" fill="#334155"/></marker><marker id="arrowB" viewBox="0 0 10 10" refX="9" refY="5" markerWidth="8" markerHeight="8" orient="auto"><path d="M0 0 L10 5 L0 10 z" fill="#2563eb"/></marker><marker id="arrowG" viewBox="0 0 10 10" refX="9" refY="5" markerWidth="8" markerHeight="8" orient="auto"><path d="M0 0 L10 5 L0 10 z" fill="#16a34a"/></marker></defs><rect width="1200" height="700" fill="#f8fafc"/><rect x="24" y="24" width="1152" height="652" rx="24" fill="white" stroke="#cbd5e1" stroke-width="2"/><text x="60" y="60" font-size="34" font-weight="700" fill="#0f172a" font-family="Arial">Fotondan dış devreye akış</text><text x="60" y="92" font-size="22" fill="#64748b" font-family="Arial">Bir olayın adım adım yolculuğu</text><rect x="60" y="170" width="220" height="120" rx="18" fill="#fff7ed" stroke="#f59e0b" stroke-width="2"/><text x="78" y="204" font-size="24" font-weight="700" fill="#0f172a" font-family="Arial">1. Foton gelir</text><text x="78" y="230" font-size="22" fill="#334155" font-family="Arial">Işık silikon yüzeye çarpar</text><rect x="330" y="170" width="220" height="120" rx="18" fill="#eff6ff" stroke="#2563eb" stroke-width="2"/><text x="348" y="204" font-size="24" font-weight="700" fill="#0f172a" font-family="Arial">2. Emilim</text><text x="348" y="230" font-size="22" fill="#334155" font-family="Arial">Elektron-delik çifti oluşur</text><rect x="600" y="170" width="220" height="120" rx="18" fill="#f0fdf4" stroke="#16a34a" stroke-width="2"/><text x="618" y="204" font-size="24" font-weight="700" fill="#0f172a" font-family="Arial">3. Ayırma</text><text x="618" y="230" font-size="22" fill="#334155" font-family="Arial">İç alan yükleri ayırır</text><rect x="870" y="170" width="220" height="120" rx="18" fill="#faf5ff" stroke="#7c3aed" stroke-width="2"/><text x="888" y="204" font-size="24" font-weight="700" fill="#0f172a" font-family="Arial">4. Dış devre</text><text x="888" y="230" font-size="22" fill="#334155" font-family="Arial">Elektron iş yapar ve geri döner</text><line x1="280" y1="230" x2="330" y2="230" stroke="#334155" stroke-width="4" marker-end="url(#arrow)" /><line x1="550" y1="230" x2="600" y2="230" stroke="#334155" stroke-width="4" marker-end="url(#arrow)" /><line x1="820" y1="230" x2="870" y2="230" stroke="#334155" stroke-width="4" marker-end="url(#arrow)" /><circle cx="165" cy="390" r="28" fill="#fde68a" stroke="#f59e0b" stroke-width="4"/><rect x="360" y="350" width="140" height="90" rx="18" fill="#dbeafe" stroke="#2563eb" stroke-width="3"/><circle cx="405" cy="395" r="13" fill="#2563eb"/><circle cx="455" cy="395" r="13" fill="white" stroke="#dc2626" stroke-width="4"/><rect x="640" y="350" width="140" height="90" rx="18" fill="#dcfce7" stroke="#16a34a" stroke-width="3"/><line x1="690" y1="395" x2="740" y2="395" stroke="#2563eb" stroke-width="5" marker-end="url(#arrowB)"/><line x1="730" y1="415" x2="680" y2="415" stroke="#dc2626" stroke-width="5" marker-end="url(#arrow)"/><path d="M900 350 H980 V440 H900" fill="none" stroke="#16a34a" stroke-width="6"/></svg>