<svg xmlns="http://www.w3.org/2000/svg" width="1200" height="700" viewBox="0 0 1200 700"><defs><marker id="arrow" viewBox="0 0 10 10" refX="9" refY="5" markerWidth="8" markerHeight="8" orient="auto"><path d="M0 0 L10 5 L0 10 z" fill="#334155"/></marker><marker id="arrowB" viewBox="0 0 10 10" refX="9" refY="5" markerWidth="8" markerHeight="8" orient="auto"><path d="M0 0 L10 5 L0 10 z" fill="#2563eb"/></marker><marker id="arrowG" viewBox="0 0 10 10" refX="9" refY="5" markerWidth="8" markerHeight="8" orient="auto"><path d="M0 0 L10 5 L0 10 z" fill="#16a34a"/></marker></defs><rect width="1200" height="700" fill="#f8fafc"/><rect x="24" y="24" width="1152" height="652" rx="24" fill="white" stroke="#cbd5e1" stroke-width="2"/><text x="60" y="60" font-size="34" font-weight="700" fill="#0f172a" font-family="Arial">Foton enerjisi ve silikon eşiği</text><text x="60" y="92" font-size="22" fill="#64748b" font-family="Arial">Dalga boyu uzadıkça enerji düşer</text><line x1="110" y1="580" x2="1070" y2="580" stroke="#0f172a" stroke-width="4"/><line x1="110" y1="580" x2="110" y2="130" stroke="#0f172a" stroke-width="4"/><path d="M150 170 C320 230,550 320,810 430 S1010 525,1040 545" fill="none" stroke="#2563eb" stroke-width="8"/><line x1="930" y1="130" x2="930" y2="580" stroke="#dc2626" stroke-width="4" stroke-dasharray="12 10"/><line x1="110" y1="360" x2="1070" y2="360" stroke="#dc2626" stroke-width="4" stroke-dasharray="12 10"/><text x="940" y="606" font-size="22" fill="#dc2626" font-family="Arial">~1100 nm</text><text x="120" y="350" font-size="22" fill="#dc2626" font-family="Arial">1,12 eV bant aralığı</text><rect x="155" y="165" width="210" height="90" rx="18" fill="#eef2ff" stroke="#7c3aed" stroke-width="2"/><text x="173" y="199" font-size="24" font-weight="700" fill="#0f172a" font-family="Arial">Mavi / mor</text><text x="173" y="225" font-size="22" fill="#334155" font-family="Arial">Kısa dalga boyu</text><text x="173" y="251" font-size="22" fill="#334155" font-family="Arial">Yüksek enerji</text><rect x="790" y="455" width="240" height="95" rx="18" fill="#fff1f2" stroke="#dc2626" stroke-width="2"/><text x="808" y="489" font-size="24" font-weight="700" fill="#0f172a" font-family="Arial">Kırmızı / kızılötesi</text><text x="808" y="515" font-size="22" fill="#334155" font-family="Arial">Uzun dalga boyu</text><text x="808" y="541" font-size="22" fill="#334155" font-family="Arial">Düşük enerji</text></svg>