<svg xmlns="http://www.w3.org/2000/svg" width="1200" height="700" viewBox="0 0 1200 700"><defs><marker id="arrow" viewBox="0 0 10 10" refX="9" refY="5" markerWidth="8" markerHeight="8" orient="auto"><path d="M0 0 L10 5 L0 10 z" fill="#334155"/></marker><marker id="arrowB" viewBox="0 0 10 10" refX="9" refY="5" markerWidth="8" markerHeight="8" orient="auto"><path d="M0 0 L10 5 L0 10 z" fill="#2563eb"/></marker><marker id="arrowG" viewBox="0 0 10 10" refX="9" refY="5" markerWidth="8" markerHeight="8" orient="auto"><path d="M0 0 L10 5 L0 10 z" fill="#16a34a"/></marker></defs><rect width="1200" height="700" fill="#f8fafc"/><rect x="24" y="24" width="1152" height="652" rx="24" fill="white" stroke="#cbd5e1" stroke-width="2"/><text x="60" y="60" font-size="34" font-weight="700" fill="#0f172a" font-family="Arial">P-N ekleminde tükenme bölgesi</text><text x="60" y="92" font-size="22" fill="#64748b" font-family="Arial">İç alan yükleri zıt yönlere sürükler</text><rect x="170" y="190" width="380" height="310" rx="20" fill="#fef2f2" stroke="#fca5a5" stroke-width="3"/><rect x="550" y="190" width="380" height="310" rx="20" fill="#eff6ff" stroke="#93c5fd" stroke-width="3"/><rect x="500" y="190" width="100" height="310" fill="#f8fafc" stroke="#dc2626" stroke-width="4" stroke-dasharray="10 8"/><text x="315" y="235" font-size="28" font-weight="700" fill="#dc2626" font-family="Arial">p-tipi</text><text x="700" y="235" font-size="28" font-weight="700" fill="#2563eb" font-family="Arial">n-tipi</text><text x="505" y="175" font-size="22" fill="#dc2626" font-family="Arial">Tükenme bölgesi</text><circle cx="250" cy="320" r="18" fill="white" stroke="#dc2626" stroke-width="4"/><text x="243" y="327" font-size="22" fill="#dc2626" font-family="Arial">+</text><circle cx="340" cy="320" r="18" fill="white" stroke="#dc2626" stroke-width="4"/><text x="333" y="327" font-size="22" fill="#dc2626" font-family="Arial">+</text><circle cx="430" cy="320" r="18" fill="white" stroke="#dc2626" stroke-width="4"/><text x="423" y="327" font-size="22" fill="#dc2626" font-family="Arial">+</text><circle cx="640" cy="320" r="18" fill="#60a5fa" stroke="#2563eb" stroke-width="3"/><text x="634" y="327" font-size="22" fill="white" font-family="Arial">−</text><circle cx="730" cy="320" r="18" fill="#60a5fa" stroke="#2563eb" stroke-width="3"/><text x="724" y="327" font-size="22" fill="white" font-family="Arial">−</text><circle cx="820" cy="320" r="18" fill="#60a5fa" stroke="#2563eb" stroke-width="3"/><text x="814" y="327" font-size="22" fill="white" font-family="Arial">−</text><line x1="585" y1="150" x2="515" y2="150" stroke="#16a34a" stroke-width="6" marker-end="url(#arrowG)"/><text x="510" y="130" font-size="22" fill="#16a34a" font-family="Arial">Elektrik alanı</text><circle cx="470" cy="430" r="16" fill="#2563eb"/><line x1="470" y1="430" x2="625" y2="430" stroke="#2563eb" stroke-width="5" marker-end="url(#arrowB)"/><circle cx="630" cy="430" r="16" fill="white" stroke="#dc2626" stroke-width="4"/><line x1="630" y1="430" x2="470" y2="430" stroke="#dc2626" stroke-width="5" marker-end="url(#arrow)"/></svg>