<svg xmlns="http://www.w3.org/2000/svg" width="1200" height="700" viewBox="0 0 1200 700">
  <defs>
    <style>
      .bg { fill:#f8fafc; }
      .panel { fill:white; stroke:#cbd5e1; stroke-width:2; rx:22; ry:22; }
      .title { font: 700 30px 'Inter', 'Segoe UI', Arial, sans-serif; fill:#0f172a; }
      .label { font: 600 22px 'Inter', 'Segoe UI', Arial, sans-serif; fill:#1e293b; }
      .text { font: 500 18px 'Inter', 'Segoe UI', Arial, sans-serif; fill:#334155; }
      .small { font: 500 15px 'Inter', 'Segoe UI', Arial, sans-serif; fill:#475569; }
      .tiny { font: 600 13px 'Inter', 'Segoe UI', Arial, sans-serif; fill:#64748b; }
      .si { fill:#cbd5e1; stroke:#64748b; stroke-width:2; }
      .p { fill:#93c5fd; stroke:#2563eb; stroke-width:2; }
      .b { fill:#fca5a5; stroke:#dc2626; stroke-width:2; }
      .accent { stroke:#0ea5e9; stroke-width:4; fill:none; }
      .green { stroke:#16a34a; fill:none; stroke-width:4; }
      .orange { stroke:#ea580c; fill:none; stroke-width:4; }
      .purple { stroke:#7c3aed; fill:none; stroke-width:4; }
      .dash { stroke-dasharray:8 8; }
      .field { stroke:#7c3aed; stroke-width:3; marker-end:url(#arrow); }
      .ray { stroke:#f59e0b; stroke-width:4; fill:none; marker-end:url(#arrow); }
      .electron { fill:#2563eb; }
      .hole { fill:#ef4444; }
    </style>
    <marker id="arrow" viewBox="0 0 10 10" refX="8" refY="5" markerWidth="7" markerHeight="7" orient="auto-start-reverse">
      <path d="M 0 0 L 10 5 L 0 10 z" fill="#334155"/>
    </marker>
    <marker id="arrowGold" viewBox="0 0 10 10" refX="8" refY="5" markerWidth="7" markerHeight="7" orient="auto-start-reverse">
      <path d="M 0 0 L 10 5 L 0 10 z" fill="#f59e0b"/>
    </marker>
  </defs>
  <rect class="bg" x="0" y="0" width="1200" height="700"/>
  <text x="50" y="52" class="title">Siyah silikon ve klasik piramit doku</text>
  
<rect class="panel" x="60" y="120" width="500" height="500"/>
<rect class="panel" x="640" y="120" width="500" height="500"/>
<text x="180" y="160" class="label">Klasik piramit doku</text>
<text x="795" y="160" class="label">Siyah silikon</text>
<path d="M 120 520 L 180 430 L 240 520 L 300 430 L 360 520 L 420 430 L 480 520" fill="#93c5fd" opacity="0.7" stroke="#334155" stroke-width="3"/>
<text x="135" y="560" class="text">mikrometre ölçekli piramitler</text>
<g stroke="#111827" stroke-width="3">
  <line x1="720" y1="520" x2="730" y2="390"/><line x1="740" y1="520" x2="748" y2="370"/><line x1="760" y1="520" x2="768" y2="405"/><line x1="780" y1="520" x2="790" y2="355"/><line x1="800" y1="520" x2="808" y2="410"/><line x1="820" y1="520" x2="830" y2="365"/><line x1="840" y1="520" x2="848" y2="395"/><line x1="860" y1="520" x2="870" y2="348"/><line x1="880" y1="520" x2="888" y2="402"/><line x1="900" y1="520" x2="910" y2="360"/><line x1="920" y1="520" x2="928" y2="392"/><line x1="940" y1="520" x2="950" y2="350"/><line x1="960" y1="520" x2="968" y2="408"/><line x1="980" y1="520" x2="990" y2="372"/><line x1="1000" y1="520" x2="1008" y2="398"/><line x1="1020" y1="520" x2="1030" y2="360"/>
</g>
<rect x="700" y="300" width="360" height="220" fill="#0f172a" opacity="0.08"/>
<text x="730" y="560" class="text">nano iğne ormanı: çok düşük yansıma</text>

</svg>