<svg xmlns="http://www.w3.org/2000/svg" width="1200" height="700" viewBox="0 0 1200 700">
  <defs>
    <style>
      .bg { fill:#f8fafc; }
      .panel { fill:white; stroke:#cbd5e1; stroke-width:2; rx:22; ry:22; }
      .title { font: 700 30px 'Inter', 'Segoe UI', Arial, sans-serif; fill:#0f172a; }
      .label { font: 600 22px 'Inter', 'Segoe UI', Arial, sans-serif; fill:#1e293b; }
      .text { font: 500 18px 'Inter', 'Segoe UI', Arial, sans-serif; fill:#334155; }
      .small { font: 500 15px 'Inter', 'Segoe UI', Arial, sans-serif; fill:#475569; }
      .tiny { font: 600 13px 'Inter', 'Segoe UI', Arial, sans-serif; fill:#64748b; }
      .si { fill:#cbd5e1; stroke:#64748b; stroke-width:2; }
      .p { fill:#93c5fd; stroke:#2563eb; stroke-width:2; }
      .b { fill:#fca5a5; stroke:#dc2626; stroke-width:2; }
      .accent { stroke:#0ea5e9; stroke-width:4; fill:none; }
      .green { stroke:#16a34a; fill:none; stroke-width:4; }
      .orange { stroke:#ea580c; fill:none; stroke-width:4; }
      .purple { stroke:#7c3aed; fill:none; stroke-width:4; }
      .dash { stroke-dasharray:8 8; }
      .field { stroke:#7c3aed; stroke-width:3; marker-end:url(#arrow); }
      .ray { stroke:#f59e0b; stroke-width:4; fill:none; marker-end:url(#arrow); }
      .electron { fill:#2563eb; }
      .hole { fill:#ef4444; }
    </style>
    <marker id="arrow" viewBox="0 0 10 10" refX="8" refY="5" markerWidth="7" markerHeight="7" orient="auto-start-reverse">
      <path d="M 0 0 L 10 5 L 0 10 z" fill="#334155"/>
    </marker>
    <marker id="arrowGold" viewBox="0 0 10 10" refX="8" refY="5" markerWidth="7" markerHeight="7" orient="auto-start-reverse">
      <path d="M 0 0 L 10 5 L 0 10 z" fill="#f59e0b"/>
    </marker>
  </defs>
  <rect class="bg" x="0" y="0" width="1200" height="700"/>
  <text x="50" y="52" class="title">Piramit dokuda çoklu sıçrama ile ışık yakalama</text>
  
<rect class="panel" x="70" y="110" width="1060" height="520"/>
<path d="M 120 470 L 220 340 L 320 470 L 420 340 L 520 470 L 620 340 L 720 470 L 820 340 L 920 470 L 1020 340 L 1120 470" fill="#93c5fd" opacity="0.65" stroke="#334155" stroke-width="3"/>
<path d="M 260 170 L 315 333" class="ray" marker-end="url(#arrowGold)"/>
<path d="M 315 333 L 385 378" class="ray" marker-end="url(#arrowGold)"/>
<path d="M 385 378 L 455 344" class="ray" marker-end="url(#arrowGold)"/>
<path d="M 650 170 L 690 338" class="ray" marker-end="url(#arrowGold)"/>
<path d="M 690 338 L 760 380" class="ray" marker-end="url(#arrowGold)"/>
<path d="M 760 380 L 830 344" class="ray" marker-end="url(#arrowGold)"/>
<text x="160" y="555" class="text">Her ek çarpışma, fotonun içeri girmesi için yeni şans yaratır.</text>
<text x="790" y="555" class="text">ARC ile birlikte toplam yansıma dramatik biçimde düşer.</text>

</svg>