<svg xmlns="http://www.w3.org/2000/svg" width="1200" height="700" viewBox="0 0 1200 700">
  <defs>
    <style>
      .bg { fill:#f8fafc; }
      .panel { fill:white; stroke:#cbd5e1; stroke-width:2; rx:22; ry:22; }
      .title { font: 700 30px 'Inter', 'Segoe UI', Arial, sans-serif; fill:#0f172a; }
      .label { font: 600 22px 'Inter', 'Segoe UI', Arial, sans-serif; fill:#1e293b; }
      .text { font: 500 18px 'Inter', 'Segoe UI', Arial, sans-serif; fill:#334155; }
      .small { font: 500 15px 'Inter', 'Segoe UI', Arial, sans-serif; fill:#475569; }
      .tiny { font: 600 13px 'Inter', 'Segoe UI', Arial, sans-serif; fill:#64748b; }
      .si { fill:#cbd5e1; stroke:#64748b; stroke-width:2; }
      .p { fill:#93c5fd; stroke:#2563eb; stroke-width:2; }
      .b { fill:#fca5a5; stroke:#dc2626; stroke-width:2; }
      .accent { stroke:#0ea5e9; stroke-width:4; fill:none; }
      .green { stroke:#16a34a; fill:none; stroke-width:4; }
      .orange { stroke:#ea580c; fill:none; stroke-width:4; }
      .purple { stroke:#7c3aed; fill:none; stroke-width:4; }
      .dash { stroke-dasharray:8 8; }
      .field { stroke:#7c3aed; stroke-width:3; marker-end:url(#arrow); }
      .ray { stroke:#f59e0b; stroke-width:4; fill:none; marker-end:url(#arrow); }
      .electron { fill:#2563eb; }
      .hole { fill:#ef4444; }
    </style>
    <marker id="arrow" viewBox="0 0 10 10" refX="8" refY="5" markerWidth="7" markerHeight="7" orient="auto-start-reverse">
      <path d="M 0 0 L 10 5 L 0 10 z" fill="#334155"/>
    </marker>
    <marker id="arrowGold" viewBox="0 0 10 10" refX="8" refY="5" markerWidth="7" markerHeight="7" orient="auto-start-reverse">
      <path d="M 0 0 L 10 5 L 0 10 z" fill="#f59e0b"/>
    </marker>
  </defs>
  <rect class="bg" x="0" y="0" width="1200" height="700"/>
  <text x="50" y="52" class="title">Düz yüzeyde yansıma ve kaplama+dokuda ışık yakalama</text>
  
<rect class="panel" x="50" y="120" width="500" height="500"/>
<rect class="panel" x="650" y="120" width="500" height="500"/>
<text x="190" y="160" class="label">Düz silikon yüzey</text>
<text x="740" y="160" class="label">Kaplama + doku</text>
<rect x="140" y="390" width="320" height="120" fill="#93c5fd" opacity="0.55"/>
<line x1="140" y1="390" x2="460" y2="390" stroke="#334155" stroke-width="4"/>
<path d="M 240 220 L 330 385" class="ray" marker-end="url(#arrowGold)"/>
<path d="M 330 385 L 420 260" class="ray" marker-end="url(#arrowGold)"/>
<text x="215" y="550" class="text">yüksek ilk yansıma</text>
<rect x="720" y="360" width="360" height="22" fill="#a7f3d0" opacity="0.8"/>
<path d="M 720 382 L 780 300 L 840 382 L 900 300 L 960 382 L 1020 300 L 1080 382" fill="#93c5fd" opacity="0.65" stroke="#334155" stroke-width="3"/>
<path d="M 760 220 L 805 312" class="ray" marker-end="url(#arrowGold)"/>
<path d="M 805 312 L 860 338" class="ray" marker-end="url(#arrowGold)"/>
<path d="M 920 220 L 947 310" class="ray" marker-end="url(#arrowGold)"/>
<path d="M 947 310 L 985 343" class="ray" marker-end="url(#arrowGold)"/>
<text x="740" y="520" class="text">çoklu sıçrama + kaplama → daha fazla giriş</text>

</svg>