<svg xmlns="http://www.w3.org/2000/svg" width="1200" height="700" viewBox="0 0 1200 700">
  <defs>
    <style>
      .bg { fill:#f8fafc; }
      .panel { fill:white; stroke:#cbd5e1; stroke-width:2; rx:22; ry:22; }
      .title { font: 700 30px 'Inter', 'Segoe UI', Arial, sans-serif; fill:#0f172a; }
      .label { font: 600 22px 'Inter', 'Segoe UI', Arial, sans-serif; fill:#1e293b; }
      .text { font: 500 18px 'Inter', 'Segoe UI', Arial, sans-serif; fill:#334155; }
      .small { font: 500 15px 'Inter', 'Segoe UI', Arial, sans-serif; fill:#475569; }
      .tiny { font: 600 13px 'Inter', 'Segoe UI', Arial, sans-serif; fill:#64748b; }
      .si { fill:#cbd5e1; stroke:#64748b; stroke-width:2; }
      .p { fill:#93c5fd; stroke:#2563eb; stroke-width:2; }
      .b { fill:#fca5a5; stroke:#dc2626; stroke-width:2; }
      .accent { stroke:#0ea5e9; stroke-width:4; fill:none; }
      .green { stroke:#16a34a; fill:none; stroke-width:4; }
      .orange { stroke:#ea580c; fill:none; stroke-width:4; }
      .purple { stroke:#7c3aed; fill:none; stroke-width:4; }
      .dash { stroke-dasharray:8 8; }
      .field { stroke:#7c3aed; stroke-width:3; marker-end:url(#arrow); }
      .ray { stroke:#f59e0b; stroke-width:4; fill:none; marker-end:url(#arrow); }
      .electron { fill:#2563eb; }
      .hole { fill:#ef4444; }
    </style>
    <marker id="arrow" viewBox="0 0 10 10" refX="8" refY="5" markerWidth="7" markerHeight="7" orient="auto-start-reverse">
      <path d="M 0 0 L 10 5 L 0 10 z" fill="#334155"/>
    </marker>
    <marker id="arrowGold" viewBox="0 0 10 10" refX="8" refY="5" markerWidth="7" markerHeight="7" orient="auto-start-reverse">
      <path d="M 0 0 L 10 5 L 0 10 z" fill="#f59e0b"/>
    </marker>
  </defs>
  <rect class="bg" x="0" y="0" width="1200" height="700"/>
  <text x="50" y="52" class="title">HJT: simetrik heteroeklem katmanları</text>
  
<rect class="panel" x="120" y="110" width="960" height="520"/>
<rect x="350" y="160" width="500" height="36" fill="#9ca3af"/>
<rect x="350" y="196" width="500" height="40" fill="#e5e7eb"/>
<rect x="350" y="236" width="500" height="24" fill="#fca5a5"/>
<rect x="350" y="260" width="500" height="18" fill="#a7f3d0"/>
<rect x="350" y="278" width="500" height="184" fill="#dbeafe"/>
<rect x="350" y="462" width="500" height="18" fill="#a7f3d0"/>
<rect x="350" y="480" width="500" height="24" fill="#93c5fd"/>
<rect x="350" y="504" width="500" height="40" fill="#e5e7eb"/>
<rect x="350" y="544" width="500" height="36" fill="#9ca3af"/>
<text x="875" y="184" class="tiny">metal</text><text x="875" y="224" class="tiny">TCO</text><text x="875" y="253" class="tiny">p-a-Si:H</text><text x="875" y="274" class="tiny">i-a-Si:H</text><text x="875" y="374" class="tiny">n-tipi c-Si levha</text><text x="875" y="476" class="tiny">i-a-Si:H</text><text x="875" y="499" class="tiny">n-a-Si:H</text><text x="875" y="530" class="tiny">TCO</text><text x="875" y="566" class="tiny">metal</text>
<text x="150" y="280" class="text">Tüm yığın ~200°C altında</text>
<text x="150" y="315" class="text">biriktirilir.</text>
<text x="150" y="420" class="text">İçsel a-Si:H katmanları</text>
<text x="150" y="445" class="text">sarkan bağları güçlü biçimde pasifleştirir.</text>

</svg>