<svg xmlns="http://www.w3.org/2000/svg" width="1200" height="700" viewBox="0 0 1200 700">
  <defs>
    <style>
      .bg { fill:#f8fafc; }
      .panel { fill:white; stroke:#cbd5e1; stroke-width:2; rx:22; ry:22; }
      .title { font: 700 30px 'Inter', 'Segoe UI', Arial, sans-serif; fill:#0f172a; }
      .label { font: 600 22px 'Inter', 'Segoe UI', Arial, sans-serif; fill:#1e293b; }
      .text { font: 500 18px 'Inter', 'Segoe UI', Arial, sans-serif; fill:#334155; }
      .small { font: 500 15px 'Inter', 'Segoe UI', Arial, sans-serif; fill:#475569; }
      .tiny { font: 600 13px 'Inter', 'Segoe UI', Arial, sans-serif; fill:#64748b; }
      .si { fill:#cbd5e1; stroke:#64748b; stroke-width:2; }
      .p { fill:#93c5fd; stroke:#2563eb; stroke-width:2; }
      .b { fill:#fca5a5; stroke:#dc2626; stroke-width:2; }
      .accent { stroke:#0ea5e9; stroke-width:4; fill:none; }
      .green { stroke:#16a34a; fill:none; stroke-width:4; }
      .orange { stroke:#ea580c; fill:none; stroke-width:4; }
      .purple { stroke:#7c3aed; fill:none; stroke-width:4; }
      .dash { stroke-dasharray:8 8; }
      .field { stroke:#7c3aed; stroke-width:3; marker-end:url(#arrow); }
      .ray { stroke:#f59e0b; stroke-width:4; fill:none; marker-end:url(#arrow); }
      .electron { fill:#2563eb; }
      .hole { fill:#ef4444; }
    </style>
    <marker id="arrow" viewBox="0 0 10 10" refX="8" refY="5" markerWidth="7" markerHeight="7" orient="auto-start-reverse">
      <path d="M 0 0 L 10 5 L 0 10 z" fill="#334155"/>
    </marker>
    <marker id="arrowGold" viewBox="0 0 10 10" refX="8" refY="5" markerWidth="7" markerHeight="7" orient="auto-start-reverse">
      <path d="M 0 0 L 10 5 L 0 10 z" fill="#f59e0b"/>
    </marker>
  </defs>
  <rect class="bg" x="0" y="0" width="1200" height="700"/>
  <text x="50" y="52" class="title">Ateşleme fırını sıcaklık profili</text>
  
<rect class="panel" x="70" y="110" width="1060" height="520"/>
<line x1="150" y1="540" x2="1060" y2="540" stroke="#334155" stroke-width="3"/>
<line x1="150" y1="200" x2="150" y2="540" stroke="#334155" stroke-width="3"/>
<path d="M 150 500 C 240 450, 310 340, 420 300 C 520 260, 600 230, 690 180 C 750 145, 790 145, 835 175 C 900 220, 970 340, 1060 500" fill="none" stroke="#ea580c" stroke-width="6"/>
<text x="235" y="520" class="small">artış</text>
<text x="420" y="270" class="small">cam aktivasyonu</text>
<text x="730" y="145" class="small">tepe ateşleme</text>
<text x="920" y="320" class="small">hızlı soğuma</text>
<rect x="690" y="120" width="120" height="430" fill="#fee2e2" opacity="0.35"/>
<text x="820" y="190" class="text">1–3 s içinde temas oluşur,</text>
<text x="820" y="220" class="text">Al-BSF kurulur</text>
<text x="118" y="198" class="small">sıcaklık</text>
<text x="1020" y="570" class="small">zaman</text>

</svg>