<svg xmlns="http://www.w3.org/2000/svg" width="1200" height="700" viewBox="0 0 1200 700">
  <defs>
    <style>
      .bg { fill:#f8fafc; }
      .panel { fill:white; stroke:#cbd5e1; stroke-width:2; rx:22; ry:22; }
      .title { font: 700 30px 'Inter', 'Segoe UI', Arial, sans-serif; fill:#0f172a; }
      .label { font: 600 22px 'Inter', 'Segoe UI', Arial, sans-serif; fill:#1e293b; }
      .text { font: 500 18px 'Inter', 'Segoe UI', Arial, sans-serif; fill:#334155; }
      .small { font: 500 15px 'Inter', 'Segoe UI', Arial, sans-serif; fill:#475569; }
      .tiny { font: 600 13px 'Inter', 'Segoe UI', Arial, sans-serif; fill:#64748b; }
      .si { fill:#cbd5e1; stroke:#64748b; stroke-width:2; }
      .p { fill:#93c5fd; stroke:#2563eb; stroke-width:2; }
      .b { fill:#fca5a5; stroke:#dc2626; stroke-width:2; }
      .accent { stroke:#0ea5e9; stroke-width:4; fill:none; }
      .green { stroke:#16a34a; fill:none; stroke-width:4; }
      .orange { stroke:#ea580c; fill:none; stroke-width:4; }
      .purple { stroke:#7c3aed; fill:none; stroke-width:4; }
      .dash { stroke-dasharray:8 8; }
      .field { stroke:#7c3aed; stroke-width:3; marker-end:url(#arrow); }
      .ray { stroke:#f59e0b; stroke-width:4; fill:none; marker-end:url(#arrow); }
      .electron { fill:#2563eb; }
      .hole { fill:#ef4444; }
    </style>
    <marker id="arrow" viewBox="0 0 10 10" refX="8" refY="5" markerWidth="7" markerHeight="7" orient="auto-start-reverse">
      <path d="M 0 0 L 10 5 L 0 10 z" fill="#334155"/>
    </marker>
    <marker id="arrowGold" viewBox="0 0 10 10" refX="8" refY="5" markerWidth="7" markerHeight="7" orient="auto-start-reverse">
      <path d="M 0 0 L 10 5 L 0 10 z" fill="#f59e0b"/>
    </marker>
  </defs>
  <rect class="bg" x="0" y="0" width="1200" height="700"/>
  <text x="50" y="52" class="title">Üç baskı geçişi</text>
  
<rect class="panel" x="70" y="120" width="1060" height="500"/>
<rect x="120" y="250" width="230" height="220" rx="18" fill="#f8fafc" stroke="#94a3b8" stroke-width="2"/>
<rect x="450" y="250" width="230" height="220" rx="18" fill="#f8fafc" stroke="#94a3b8" stroke-width="2"/>
<rect x="780" y="250" width="230" height="220" rx="18" fill="#f8fafc" stroke="#94a3b8" stroke-width="2"/>
<text x="145" y="215" class="label">1. Arka gümüş pedler</text>
<text x="460" y="215" class="label">2. Arka alüminyum</text>
<text x="810" y="215" class="label">3. Ön gümüş şebeke</text>
<rect x="160" y="290" width="150" height="140" fill="#dbeafe" stroke="#64748b" stroke-width="2"/>
<rect x="175" y="315" width="30" height="90" fill="#c0c0c0"/><rect x="265" y="315" width="30" height="90" fill="#c0c0c0"/>
<rect x="490" y="290" width="150" height="140" fill="#dbeafe" stroke="#64748b" stroke-width="2"/>
<rect x="500" y="300" width="130" height="120" fill="#f59e0b" opacity="0.75"/>
<rect x="820" y="290" width="150" height="140" fill="#dbeafe" stroke="#64748b" stroke-width="2"/>
<rect x="845" y="302" width="5" height="115" fill="#c0c0c0"/><rect x="863" y="302" width="5" height="115" fill="#c0c0c0"/><rect x="881" y="302" width="5" height="115" fill="#c0c0c0"/><rect x="899" y="302" width="5" height="115" fill="#c0c0c0"/><rect x="917" y="302" width="5" height="115" fill="#c0c0c0"/><rect x="935" y="302" width="5" height="115" fill="#c0c0c0"/>
<rect x="875" y="290" width="10" height="140" fill="#9ca3af"/>
<text x="125" y="520" class="text">lehim tabları</text><text x="470" y="520" class="text">BSF oluşturacak tam alan katman</text><text x="785" y="520" class="text">parmaklar + bara</text>

</svg>