<svg xmlns="http://www.w3.org/2000/svg" width="1200" height="700" viewBox="0 0 1200 700"><defs><marker id="arrow" viewBox="0 0 10 10" refX="9" refY="5" markerWidth="8" markerHeight="8" orient="auto"><path d="M0 0 L10 5 L0 10 z" fill="#334155"/></marker><marker id="arrowB" viewBox="0 0 10 10" refX="9" refY="5" markerWidth="8" markerHeight="8" orient="auto"><path d="M0 0 L10 5 L0 10 z" fill="#2563eb"/></marker><marker id="arrowG" viewBox="0 0 10 10" refX="9" refY="5" markerWidth="8" markerHeight="8" orient="auto"><path d="M0 0 L10 5 L0 10 z" fill="#16a34a"/></marker></defs><rect width="1200" height="700" fill="#f8fafc"/><rect x="24" y="24" width="1152" height="652" rx="24" fill="white" stroke="#cbd5e1" stroke-width="2"/><text x="60" y="60" font-size="34" font-weight="700" fill="#0f172a" font-family="Arial">Damıtma kolonunda ayırma</text><text x="60" y="92" font-size="22" fill="#64748b" font-family="Arial">Farklı klorosilanlar farklı seviyelerde ayrılır</text><rect x="470" y="120" width="240" height="470" rx="40" fill="#f8fafc" stroke="#2563eb" stroke-width="4"/><line x1="490" y1="180" x2="690" y2="180" stroke="#cbd5e1" stroke-width="3"/><line x1="490" y1="235" x2="690" y2="235" stroke="#cbd5e1" stroke-width="3"/><line x1="490" y1="290" x2="690" y2="290" stroke="#cbd5e1" stroke-width="3"/><line x1="490" y1="345" x2="690" y2="345" stroke="#cbd5e1" stroke-width="3"/><line x1="490" y1="400" x2="690" y2="400" stroke="#cbd5e1" stroke-width="3"/><line x1="490" y1="455" x2="690" y2="455" stroke="#cbd5e1" stroke-width="3"/><line x1="490" y1="510" x2="690" y2="510" stroke="#cbd5e1" stroke-width="3"/><line x1="760" y1="160" x2="710" y2="160" stroke="#2563eb" stroke-width="4" marker-end="url(#arrowB)"/><line x1="420" y1="540" x2="470" y2="540" stroke="#dc2626" stroke-width="4" marker-end="url(#arrow)"/><rect x="80" y="150" width="260" height="110" rx="18" fill="#eef2ff" stroke="#7c3aed" stroke-width="2"/><text x="98" y="184" font-size="24" font-weight="700" fill="#0f172a" font-family="Arial">BCl₃</text><text x="98" y="210" font-size="22" fill="#334155" font-family="Arial">12,6°C</text><text x="98" y="236" font-size="22" fill="#334155" font-family="Arial">Üste kaçmaya daha yatkın</text><rect x="80" y="305" width="260" height="110" rx="18" fill="#eff6ff" stroke="#2563eb" stroke-width="2"/><text x="98" y="339" font-size="24" font-weight="700" fill="#0f172a" font-family="Arial">TCS</text><text x="98" y="365" font-size="22" fill="#334155" font-family="Arial">31,8°C</text><text x="98" y="391" font-size="22" fill="#334155" font-family="Arial">İstenen ana ürün</text><rect x="80" y="460" width="260" height="110" rx="18" fill="#fff7ed" stroke="#f59e0b" stroke-width="2"/><text x="98" y="494" font-size="24" font-weight="700" fill="#0f172a" font-family="Arial">PCl₃</text><text x="98" y="520" font-size="22" fill="#334155" font-family="Arial">76°C</text><text x="98" y="546" font-size="22" fill="#334155" font-family="Arial">Daha aşağıda kalma eğilimi</text></svg>