<svg xmlns="http://www.w3.org/2000/svg" width="1200" height="700" viewBox="0 0 1200 700"><defs><marker id="arrow" viewBox="0 0 10 10" refX="9" refY="5" markerWidth="8" markerHeight="8" orient="auto"><path d="M0 0 L10 5 L0 10 z" fill="#334155"/></marker><marker id="arrowB" viewBox="0 0 10 10" refX="9" refY="5" markerWidth="8" markerHeight="8" orient="auto"><path d="M0 0 L10 5 L0 10 z" fill="#2563eb"/></marker><marker id="arrowG" viewBox="0 0 10 10" refX="9" refY="5" markerWidth="8" markerHeight="8" orient="auto"><path d="M0 0 L10 5 L0 10 z" fill="#16a34a"/></marker></defs><rect width="1200" height="700" fill="#f8fafc"/><rect x="24" y="24" width="1152" height="652" rx="24" fill="white" stroke="#cbd5e1" stroke-width="2"/><text x="60" y="60" font-size="34" font-weight="700" fill="#0f172a" font-family="Arial">Siemens ve FBR üretim mantığı</text><text x="60" y="92" font-size="22" fill="#64748b" font-family="Arial">Parti usulü çubuk büyütme ile sürekli granül büyütme</text><rect x="80" y="170" width="450" height="380" rx="18" fill="#fff7ed" stroke="#f59e0b" stroke-width="2"/><text x="98" y="204" font-size="24" font-weight="700" fill="#0f172a" font-family="Arial">Siemens</text><text x="98" y="230" font-size="22" fill="#334155" font-family="Arial">Sıcak U-çubuklar</text><text x="98" y="256" font-size="22" fill="#334155" font-family="Arial">Yüksek sıcaklık</text><text x="98" y="282" font-size="22" fill="#334155" font-family="Arial">Yavaş ama çok temiz</text><rect x="670" y="170" width="450" height="380" rx="18" fill="#eff6ff" stroke="#2563eb" stroke-width="2"/><text x="688" y="204" font-size="24" font-weight="700" fill="#0f172a" font-family="Arial">FBR</text><text x="688" y="230" font-size="22" fill="#334155" font-family="Arial">Akışkan tanecikler</text><text x="688" y="256" font-size="22" fill="#334155" font-family="Arial">Daha düşük enerji</text><text x="688" y="282" font-size="22" fill="#334155" font-family="Arial">Sürekli ürün akışı</text><path d="M220 470 V290 C220 250,270 240,270 285" fill="none" stroke="#9ca3af" stroke-width="16"/><path d="M390 470 V290 C390 250,340 240,340 285" fill="none" stroke="#9ca3af" stroke-width="16"/><rect x="760" y="280" width="160" height="180" rx="30" fill="#e0f2fe" stroke="#2563eb" stroke-width="3"/><circle cx="800" cy="325" r="10" fill="#60a5fa" stroke="#2563eb" stroke-width="2"/><circle cx="828" cy="325" r="10" fill="#60a5fa" stroke="#2563eb" stroke-width="2"/><circle cx="856" cy="325" r="10" fill="#60a5fa" stroke="#2563eb" stroke-width="2"/><circle cx="884" cy="325" r="10" fill="#60a5fa" stroke="#2563eb" stroke-width="2"/><circle cx="800" cy="353" r="10" fill="#60a5fa" stroke="#2563eb" stroke-width="2"/><circle cx="828" cy="353" r="10" fill="#60a5fa" stroke="#2563eb" stroke-width="2"/><circle cx="856" cy="353" r="10" fill="#60a5fa" stroke="#2563eb" stroke-width="2"/><circle cx="884" cy="353" r="10" fill="#60a5fa" stroke="#2563eb" stroke-width="2"/><circle cx="800" cy="381" r="10" fill="#60a5fa" stroke="#2563eb" stroke-width="2"/><circle cx="828" cy="381" r="10" fill="#60a5fa" stroke="#2563eb" stroke-width="2"/><circle cx="856" cy="381" r="10" fill="#60a5fa" stroke="#2563eb" stroke-width="2"/><circle cx="884" cy="381" r="10" fill="#60a5fa" stroke="#2563eb" stroke-width="2"/><circle cx="800" cy="409" r="10" fill="#60a5fa" stroke="#2563eb" stroke-width="2"/><circle cx="828" cy="409" r="10" fill="#60a5fa" stroke="#2563eb" stroke-width="2"/><circle cx="856" cy="409" r="10" fill="#60a5fa" stroke="#2563eb" stroke-width="2"/><circle cx="884" cy="409" r="10" fill="#60a5fa" stroke="#2563eb" stroke-width="2"/></svg>