<svg xmlns="http://www.w3.org/2000/svg" width="1200" height="700" viewBox="0 0 1200 700"><defs><marker id="arrow" viewBox="0 0 10 10" refX="9" refY="5" markerWidth="8" markerHeight="8" orient="auto"><path d="M0 0 L10 5 L0 10 z" fill="#334155"/></marker><marker id="arrowB" viewBox="0 0 10 10" refX="9" refY="5" markerWidth="8" markerHeight="8" orient="auto"><path d="M0 0 L10 5 L0 10 z" fill="#2563eb"/></marker><marker id="arrowG" viewBox="0 0 10 10" refX="9" refY="5" markerWidth="8" markerHeight="8" orient="auto"><path d="M0 0 L10 5 L0 10 z" fill="#16a34a"/></marker></defs><rect width="1200" height="700" fill="#f8fafc"/><rect x="24" y="24" width="1152" height="652" rx="24" fill="white" stroke="#cbd5e1" stroke-width="2"/><text x="60" y="60" font-size="34" font-weight="700" fill="#0f172a" font-family="Arial">Siemens reaktörü kesiti</text><text x="60" y="92" font-size="22" fill="#64748b" font-family="Arial">Isıtılmış tohum çubuklar üzerinde CVD birikimi</text><path d="M260 150 H940 V560 H260 Z" fill="#111827" stroke="#1f2937" stroke-width="4"/><path d="M320 520 V270 C320 225,380 215,380 260 V520" fill="none" stroke="#d1d5db" stroke-width="18"/><path d="M820 520 V270 C820 225,760 215,760 260 V520" fill="none" stroke="#d1d5db" stroke-width="18"/><path d="M320 520 V270 C320 225,380 215,380 260" fill="none" stroke="#f8fafc" stroke-width="34" opacity="0.35"/><path d="M820 520 V270 C820 225,760 215,760 260" fill="none" stroke="#f8fafc" stroke-width="34" opacity="0.35"/><line x1="600" y1="600" x2="600" y2="560" stroke="#16a34a" stroke-width="5" marker-end="url(#arrowG)"/><line x1="940" y1="260" x2="1030" y2="260" stroke="#dc2626" stroke-width="5" marker-end="url(#arrow)"/><text x="620" y="600" font-size="22" fill="#16a34a" font-family="Arial">TCS + H₂ girişi</text><text x="895" y="240" font-size="22" fill="#dc2626" font-family="Arial">Egzoz / geri dönüş</text></svg>