<svg xmlns="http://www.w3.org/2000/svg" width="1200" height="700" viewBox="0 0 1200 700"><defs><marker id="arrow" viewBox="0 0 10 10" refX="9" refY="5" markerWidth="8" markerHeight="8" orient="auto"><path d="M0 0 L10 5 L0 10 z" fill="#334155"/></marker><marker id="arrowB" viewBox="0 0 10 10" refX="9" refY="5" markerWidth="8" markerHeight="8" orient="auto"><path d="M0 0 L10 5 L0 10 z" fill="#2563eb"/></marker><marker id="arrowG" viewBox="0 0 10 10" refX="9" refY="5" markerWidth="8" markerHeight="8" orient="auto"><path d="M0 0 L10 5 L0 10 z" fill="#16a34a"/></marker></defs><rect width="1200" height="700" fill="#f8fafc"/><rect x="24" y="24" width="1152" height="652" rx="24" fill="white" stroke="#cbd5e1" stroke-width="2"/><text x="60" y="60" font-size="34" font-weight="700" fill="#0f172a" font-family="Arial">Siemens sürecinin büyük resmi</text><text x="60" y="92" font-size="22" fill="#64748b" font-family="Arial">Katı → gaz → saf gaz → tekrar katı</text><rect x="40" y="250" width="220" height="120" rx="18" fill="#fef2f2" stroke="#dc2626" stroke-width="2"/><text x="58" y="284" font-size="24" font-weight="700" fill="#0f172a" font-family="Arial">1. MG-Si</text><text x="58" y="310" font-size="22" fill="#334155" font-family="Arial">Kirli silikon</text><rect x="310" y="250" width="220" height="120" rx="18" fill="#fff7ed" stroke="#f59e0b" stroke-width="2"/><text x="328" y="284" font-size="24" font-weight="700" fill="#0f172a" font-family="Arial">2. TCS üretimi</text><text x="328" y="310" font-size="22" fill="#334155" font-family="Arial">HCl ile klorosilan</text><rect x="580" y="250" width="220" height="120" rx="18" fill="#eff6ff" stroke="#2563eb" stroke-width="2"/><text x="598" y="284" font-size="24" font-weight="700" fill="#0f172a" font-family="Arial">3. Damıtma</text><text x="598" y="310" font-size="22" fill="#334155" font-family="Arial">Saflaştırılmış TCS</text><rect x="850" y="250" width="250" height="120" rx="18" fill="#f0fdf4" stroke="#16a34a" stroke-width="2"/><text x="868" y="284" font-size="24" font-weight="700" fill="#0f172a" font-family="Arial">4. CVD / Siemens</text><text x="868" y="310" font-size="22" fill="#334155" font-family="Arial">Polisilikon çubuk</text><line x1="260" y1="310" x2="310" y2="310" stroke="#334155" stroke-width="4" marker-end="url(#arrow)" /><line x1="530" y1="310" x2="580" y2="310" stroke="#334155" stroke-width="4" marker-end="url(#arrow)" /><line x1="800" y1="310" x2="850" y2="310" stroke="#334155" stroke-width="4" marker-end="url(#arrow)" /></svg>