<svg xmlns="http://www.w3.org/2000/svg" width="1200" height="700" viewBox="0 0 1200 700"><defs><marker id="arrow" viewBox="0 0 10 10" refX="9" refY="5" markerWidth="8" markerHeight="8" orient="auto"><path d="M0 0 L10 5 L0 10 z" fill="#334155"/></marker><marker id="arrowB" viewBox="0 0 10 10" refX="9" refY="5" markerWidth="8" markerHeight="8" orient="auto"><path d="M0 0 L10 5 L0 10 z" fill="#2563eb"/></marker><marker id="arrowG" viewBox="0 0 10 10" refX="9" refY="5" markerWidth="8" markerHeight="8" orient="auto"><path d="M0 0 L10 5 L0 10 z" fill="#16a34a"/></marker></defs><rect width="1200" height="700" fill="#f8fafc"/><rect x="24" y="24" width="1152" height="652" rx="24" fill="white" stroke="#cbd5e1" stroke-width="2"/><text x="60" y="60" font-size="34" font-weight="700" fill="#0f172a" font-family="Arial">Testereden yeni çıkmış levhalar</text><text x="60" y="92" font-size="22" fill="#64748b" font-family="Arial">Fotoğraf yerine stilize üretim görünümü</text><rect x="260" y="180" width="680" height="360" rx="20" fill="#eef2f7" stroke="#94a3b8" stroke-width="3"/><rect x="320" y="210" width="560" height="10" rx="4" fill="#cbd5e1" stroke="#94a3b8" stroke-width="1"/><rect x="320" y="228" width="560" height="10" rx="4" fill="#cbd5e1" stroke="#94a3b8" stroke-width="1"/><rect x="320" y="246" width="560" height="10" rx="4" fill="#cbd5e1" stroke="#94a3b8" stroke-width="1"/><rect x="320" y="264" width="560" height="10" rx="4" fill="#cbd5e1" stroke="#94a3b8" stroke-width="1"/><rect x="320" y="282" width="560" height="10" rx="4" fill="#cbd5e1" stroke="#94a3b8" stroke-width="1"/><rect x="320" y="300" width="560" height="10" rx="4" fill="#cbd5e1" stroke="#94a3b8" stroke-width="1"/><rect x="320" y="318" width="560" height="10" rx="4" fill="#cbd5e1" stroke="#94a3b8" stroke-width="1"/><rect x="320" y="336" width="560" height="10" rx="4" fill="#cbd5e1" stroke="#94a3b8" stroke-width="1"/><rect x="320" y="354" width="560" height="10" rx="4" fill="#cbd5e1" stroke="#94a3b8" stroke-width="1"/><rect x="320" y="372" width="560" height="10" rx="4" fill="#cbd5e1" stroke="#94a3b8" stroke-width="1"/><rect x="320" y="390" width="560" height="10" rx="4" fill="#cbd5e1" stroke="#94a3b8" stroke-width="1"/><rect x="320" y="408" width="560" height="10" rx="4" fill="#cbd5e1" stroke="#94a3b8" stroke-width="1"/><rect x="320" y="426" width="560" height="10" rx="4" fill="#cbd5e1" stroke="#94a3b8" stroke-width="1"/><rect x="320" y="444" width="560" height="10" rx="4" fill="#cbd5e1" stroke="#94a3b8" stroke-width="1"/><text x="335" y="590" font-size="24" fill="#334155" font-family="Arial">Mat gri görünüm, ince tel izleri ve kasette dizilmiş kırılgan levhalar</text></svg>