<svg xmlns="http://www.w3.org/2000/svg" width="1200" height="700" viewBox="0 0 1200 700"><defs><marker id="arrow" viewBox="0 0 10 10" refX="9" refY="5" markerWidth="8" markerHeight="8" orient="auto"><path d="M0 0 L10 5 L0 10 z" fill="#334155"/></marker><marker id="arrowB" viewBox="0 0 10 10" refX="9" refY="5" markerWidth="8" markerHeight="8" orient="auto"><path d="M0 0 L10 5 L0 10 z" fill="#2563eb"/></marker><marker id="arrowG" viewBox="0 0 10 10" refX="9" refY="5" markerWidth="8" markerHeight="8" orient="auto"><path d="M0 0 L10 5 L0 10 z" fill="#16a34a"/></marker></defs><rect width="1200" height="700" fill="#f8fafc"/><rect x="24" y="24" width="1152" height="652" rx="24" fill="white" stroke="#cbd5e1" stroke-width="2"/><text x="60" y="60" font-size="34" font-weight="700" fill="#0f172a" font-family="Arial">Külçeden levhaya akış</text><text x="60" y="92" font-size="22" fill="#64748b" font-family="Arial">Kare alma, tel kesim, kasetleme</text><rect x="60" y="240" width="220" height="120" rx="18" fill="#eef2ff" stroke="#7c3aed" stroke-width="2"/><text x="78" y="274" font-size="24" font-weight="700" fill="#0f172a" font-family="Arial">Silindirik külçe</text><text x="78" y="300" font-size="22" fill="#334155" font-family="Arial">Tek kristal silikon</text><rect x="350" y="240" width="220" height="120" rx="18" fill="#fff7ed" stroke="#f59e0b" stroke-width="2"/><text x="368" y="274" font-size="24" font-weight="700" fill="#0f172a" font-family="Arial">Kare alma</text><text x="368" y="300" font-size="22" fill="#334155" font-family="Arial">Yanlar kesilir</text><rect x="640" y="240" width="220" height="120" rx="18" fill="#eff6ff" stroke="#2563eb" stroke-width="2"/><text x="658" y="274" font-size="24" font-weight="700" fill="#0f172a" font-family="Arial">Tel testere</text><text x="658" y="300" font-size="22" fill="#334155" font-family="Arial">Binlerce paralel kesim</text><rect x="930" y="240" width="200" height="120" rx="18" fill="#f0fdf4" stroke="#16a34a" stroke-width="2"/><text x="948" y="274" font-size="24" font-weight="700" fill="#0f172a" font-family="Arial">Levha kaseti</text><text x="948" y="300" font-size="22" fill="#334155" font-family="Arial">İnce dilimler</text><line x1="280" y1="300" x2="350" y2="300" stroke="#334155" stroke-width="4" marker-end="url(#arrow)" /><line x1="570" y1="300" x2="640" y2="300" stroke="#334155" stroke-width="4" marker-end="url(#arrow)" /><line x1="860" y1="300" x2="930" y2="300" stroke="#334155" stroke-width="4" marker-end="url(#arrow)" /><circle cx="170" cy="470" r="55" fill="#cbd5e1" stroke="#94a3b8" stroke-width="3"/><rect x="400" y="420" width="110" height="110" rx="12" fill="#dbeafe" stroke="#f59e0b" stroke-width="3"/><line x1="700" y1="410" x2="700" y2="535" stroke="#334155" stroke-width="3"/><line x1="718" y1="410" x2="718" y2="535" stroke="#334155" stroke-width="3"/><line x1="736" y1="410" x2="736" y2="535" stroke="#334155" stroke-width="3"/><line x1="754" y1="410" x2="754" y2="535" stroke="#334155" stroke-width="3"/><line x1="772" y1="410" x2="772" y2="535" stroke="#334155" stroke-width="3"/><line x1="790" y1="410" x2="790" y2="535" stroke="#334155" stroke-width="3"/><line x1="808" y1="410" x2="808" y2="535" stroke="#334155" stroke-width="3"/><line x1="826" y1="410" x2="826" y2="535" stroke="#334155" stroke-width="3"/><rect x="980" y="430" width="90" height="10" rx="4" fill="#d1d5db"/><rect x="980" y="444" width="90" height="10" rx="4" fill="#d1d5db"/><rect x="980" y="458" width="90" height="10" rx="4" fill="#d1d5db"/><rect x="980" y="472" width="90" height="10" rx="4" fill="#d1d5db"/><rect x="980" y="486" width="90" height="10" rx="4" fill="#d1d5db"/><rect x="980" y="500" width="90" height="10" rx="4" fill="#d1d5db"/></svg>