<svg xmlns="http://www.w3.org/2000/svg" width="1200" height="700" viewBox="0 0 1200 700"><defs><marker id="arrow" viewBox="0 0 10 10" refX="9" refY="5" markerWidth="8" markerHeight="8" orient="auto"><path d="M0 0 L10 5 L0 10 z" fill="#334155"/></marker><marker id="arrowB" viewBox="0 0 10 10" refX="9" refY="5" markerWidth="8" markerHeight="8" orient="auto"><path d="M0 0 L10 5 L0 10 z" fill="#2563eb"/></marker><marker id="arrowG" viewBox="0 0 10 10" refX="9" refY="5" markerWidth="8" markerHeight="8" orient="auto"><path d="M0 0 L10 5 L0 10 z" fill="#16a34a"/></marker></defs><rect width="1200" height="700" fill="#f8fafc"/><rect x="24" y="24" width="1152" height="652" rx="24" fill="white" stroke="#cbd5e1" stroke-width="2"/><text x="60" y="60" font-size="34" font-weight="700" fill="#0f172a" font-family="Arial">Bulamaç tel ve elmas tel kesimi</text><text x="60" y="92" font-size="22" fill="#64748b" font-family="Arial">Daha ince tel = daha az kerf kaybı</text><rect x="90" y="170" width="430" height="380" rx="18" fill="#fff7ed" stroke="#f59e0b" stroke-width="2"/><text x="108" y="204" font-size="24" font-weight="700" fill="#0f172a" font-family="Arial">Bulamaç tel</text><text x="108" y="230" font-size="22" fill="#334155" font-family="Arial">120–160 μm tel</text><text x="108" y="256" font-size="22" fill="#334155" font-family="Arial">170–200 μm kerf</text><text x="108" y="282" font-size="22" fill="#334155" font-family="Arial">Yavaş ve kirli</text><rect x="680" y="170" width="430" height="380" rx="18" fill="#eff6ff" stroke="#2563eb" stroke-width="2"/><text x="698" y="204" font-size="24" font-weight="700" fill="#0f172a" font-family="Arial">Elmas tel</text><text x="698" y="230" font-size="22" fill="#334155" font-family="Arial">38–46 μm tel</text><text x="698" y="256" font-size="22" fill="#334155" font-family="Arial">55–65 μm kerf</text><text x="698" y="282" font-size="22" fill="#334155" font-family="Arial">Hızlı ve temiz</text><circle cx="210" cy="380" r="50" fill="#94a3b8"/><rect x="300" y="340" width="110" height="80" rx="12" fill="#d1d5db"/><circle cx="800" cy="380" r="28" fill="#94a3b8" stroke="#2563eb" stroke-width="6"/><rect x="875" y="340" width="70" height="80" rx="12" fill="#d1d5db"/></svg>