<svg xmlns="http://www.w3.org/2000/svg" width="1200" height="700" viewBox="0 0 1200 700"><defs><marker id="arrow" viewBox="0 0 10 10" refX="9" refY="5" markerWidth="8" markerHeight="8" orient="auto"><path d="M0 0 L10 5 L0 10 z" fill="#334155"/></marker><marker id="arrowB" viewBox="0 0 10 10" refX="9" refY="5" markerWidth="8" markerHeight="8" orient="auto"><path d="M0 0 L10 5 L0 10 z" fill="#2563eb"/></marker><marker id="arrowG" viewBox="0 0 10 10" refX="9" refY="5" markerWidth="8" markerHeight="8" orient="auto"><path d="M0 0 L10 5 L0 10 z" fill="#16a34a"/></marker></defs><rect width="1200" height="700" fill="#f8fafc"/><rect x="24" y="24" width="1152" height="652" rx="24" fill="white" stroke="#cbd5e1" stroke-width="2"/><text x="60" y="60" font-size="34" font-weight="700" fill="#0f172a" font-family="Arial">Modern tel testerenin tel ağı</text><text x="60" y="92" font-size="22" fill="#64748b" font-family="Arial">Tek makaradan binlerce paralel kesim</text><circle cx="210" cy="350" r="90" fill="#cbd5e1" stroke="#64748b" stroke-width="4"/><circle cx="990" cy="350" r="90" fill="#cbd5e1" stroke="#64748b" stroke-width="4"/><line x1="300" y1="220" x2="900" y2="220" stroke="#334155" stroke-width="2"/><line x1="300" y1="242" x2="900" y2="242" stroke="#334155" stroke-width="2"/><line x1="300" y1="264" x2="900" y2="264" stroke="#334155" stroke-width="2"/><line x1="300" y1="286" x2="900" y2="286" stroke="#334155" stroke-width="2"/><line x1="300" y1="308" x2="900" y2="308" stroke="#334155" stroke-width="2"/><line x1="300" y1="330" x2="900" y2="330" stroke="#334155" stroke-width="2"/><line x1="300" y1="352" x2="900" y2="352" stroke="#334155" stroke-width="2"/><line x1="300" y1="374" x2="900" y2="374" stroke="#334155" stroke-width="2"/><line x1="300" y1="396" x2="900" y2="396" stroke="#334155" stroke-width="2"/><line x1="300" y1="418" x2="900" y2="418" stroke="#334155" stroke-width="2"/><line x1="300" y1="440" x2="900" y2="440" stroke="#334155" stroke-width="2"/><line x1="300" y1="462" x2="900" y2="462" stroke="#334155" stroke-width="2"/><line x1="300" y1="484" x2="900" y2="484" stroke="#334155" stroke-width="2"/><line x1="300" y1="506" x2="900" y2="506" stroke="#334155" stroke-width="2"/><line x1="300" y1="528" x2="900" y2="528" stroke="#334155" stroke-width="2"/><line x1="300" y1="550" x2="900" y2="550" stroke="#334155" stroke-width="2"/><rect x="520" y="250" width="160" height="250" rx="18" fill="#dbeafe" stroke="#2563eb" stroke-width="3"/><text x="470" y="560" font-size="24" fill="#334155" font-family="Arial">Silikon tuğla tel ağına doğru yavaşça iner</text></svg>