<svg xmlns="http://www.w3.org/2000/svg" width="1200" height="700" viewBox="0 0 1200 700"><defs><marker id="arrow" viewBox="0 0 10 10" refX="9" refY="5" markerWidth="8" markerHeight="8" orient="auto"><path d="M0 0 L10 5 L0 10 z" fill="#334155"/></marker><marker id="arrowB" viewBox="0 0 10 10" refX="9" refY="5" markerWidth="8" markerHeight="8" orient="auto"><path d="M0 0 L10 5 L0 10 z" fill="#2563eb"/></marker><marker id="arrowG" viewBox="0 0 10 10" refX="9" refY="5" markerWidth="8" markerHeight="8" orient="auto"><path d="M0 0 L10 5 L0 10 z" fill="#16a34a"/></marker></defs><rect width="1200" height="700" fill="#f8fafc"/><rect x="24" y="24" width="1152" height="652" rx="24" fill="white" stroke="#cbd5e1" stroke-width="2"/><text x="60" y="60" font-size="34" font-weight="700" fill="#0f172a" font-family="Arial">Monokristal ve polikristal yapı</text><text x="60" y="92" font-size="22" fill="#64748b" font-family="Arial">Düzenli kafes ile tane sınırları</text><rect x="110" y="180" width="380" height="360" rx="22" fill="#eff6ff" stroke="#2563eb" stroke-width="3"/><rect x="710" y="180" width="380" height="360" rx="22" fill="#fff7ed" stroke="#f59e0b" stroke-width="3"/><text x="225" y="220" font-size="28" font-weight="700" fill="#2563eb" font-family="Arial">Monokristal</text><text x="812" y="220" font-size="28" font-weight="700" fill="#b45309" font-family="Arial">Polikristal</text><circle cx="170" cy="285" r="15" fill="#60a5fa"/><circle cx="222" cy="285" r="15" fill="#60a5fa"/><circle cx="274" cy="285" r="15" fill="#60a5fa"/><circle cx="326" cy="285" r="15" fill="#60a5fa"/><circle cx="378" cy="285" r="15" fill="#60a5fa"/><circle cx="430" cy="285" r="15" fill="#60a5fa"/><circle cx="170" cy="343" r="15" fill="#60a5fa"/><circle cx="222" cy="343" r="15" fill="#60a5fa"/><circle cx="274" cy="343" r="15" fill="#60a5fa"/><circle cx="326" cy="343" r="15" fill="#60a5fa"/><circle cx="378" cy="343" r="15" fill="#60a5fa"/><circle cx="430" cy="343" r="15" fill="#60a5fa"/><circle cx="170" cy="401" r="15" fill="#60a5fa"/><circle cx="222" cy="401" r="15" fill="#60a5fa"/><circle cx="274" cy="401" r="15" fill="#60a5fa"/><circle cx="326" cy="401" r="15" fill="#60a5fa"/><circle cx="378" cy="401" r="15" fill="#60a5fa"/><circle cx="430" cy="401" r="15" fill="#60a5fa"/><circle cx="170" cy="459" r="15" fill="#60a5fa"/><circle cx="222" cy="459" r="15" fill="#60a5fa"/><circle cx="274" cy="459" r="15" fill="#60a5fa"/><circle cx="326" cy="459" r="15" fill="#60a5fa"/><circle cx="378" cy="459" r="15" fill="#60a5fa"/><circle cx="430" cy="459" r="15" fill="#60a5fa"/><circle cx="770" cy="285" r="15" fill="#fde68a"/><circle cx="860" cy="285" r="15" fill="#fde68a"/><circle cx="950" cy="285" r="15" fill="#fde68a"/><circle cx="790" cy="343" r="15" fill="#fde68a"/><circle cx="880" cy="343" r="15" fill="#fde68a"/><circle cx="970" cy="343" r="15" fill="#fde68a"/><circle cx="770" cy="401" r="15" fill="#fde68a"/><circle cx="860" cy="401" r="15" fill="#fde68a"/><circle cx="950" cy="401" r="15" fill="#fde68a"/><circle cx="790" cy="459" r="15" fill="#fde68a"/><circle cx="880" cy="459" r="15" fill="#fde68a"/><circle cx="970" cy="459" r="15" fill="#fde68a"/><circle cx="770" cy="517" r="15" fill="#fde68a"/><circle cx="860" cy="517" r="15" fill="#fde68a"/><circle cx="950" cy="517" r="15" fill="#fde68a"/><circle cx="790" cy="575" r="15" fill="#fde68a"/><circle cx="880" cy="575" r="15" fill="#fde68a"/><circle cx="970" cy="575" r="15" fill="#fde68a"/><path d="M840 180 L930 300 L830 420" fill="none" stroke="#dc2626" stroke-width="4"/><path d="M760 320 L900 250 L1030 340" fill="none" stroke="#dc2626" stroke-width="4"/></svg>