<svg xmlns="http://www.w3.org/2000/svg" width="1200" height="700" viewBox="0 0 1200 700"><defs><marker id="arrow" viewBox="0 0 10 10" refX="9" refY="5" markerWidth="8" markerHeight="8" orient="auto"><path d="M0 0 L10 5 L0 10 z" fill="#334155"/></marker><marker id="arrowB" viewBox="0 0 10 10" refX="9" refY="5" markerWidth="8" markerHeight="8" orient="auto"><path d="M0 0 L10 5 L0 10 z" fill="#2563eb"/></marker><marker id="arrowG" viewBox="0 0 10 10" refX="9" refY="5" markerWidth="8" markerHeight="8" orient="auto"><path d="M0 0 L10 5 L0 10 z" fill="#16a34a"/></marker></defs><rect width="1200" height="700" fill="#f8fafc"/><rect x="24" y="24" width="1152" height="652" rx="24" fill="white" stroke="#cbd5e1" stroke-width="2"/><text x="60" y="60" font-size="34" font-weight="700" fill="#0f172a" font-family="Arial">Geleneksel CZ ve yeniden şarj CZ</text><text x="60" y="92" font-size="22" fill="#64748b" font-family="Arial">Aynı potadan birden çok külçe almak</text><rect x="80" y="170" width="450" height="390" rx="18" fill="#fff7ed" stroke="#f59e0b" stroke-width="2"/><text x="98" y="204" font-size="24" font-weight="700" fill="#0f172a" font-family="Arial">Geleneksel CZ</text><text x="98" y="230" font-size="22" fill="#334155" font-family="Arial">1. Erit</text><text x="98" y="256" font-size="22" fill="#334155" font-family="Arial">2. Tek külçe çek</text><text x="98" y="282" font-size="22" fill="#334155" font-family="Arial">3. Soğut</text><text x="98" y="308" font-size="22" fill="#334155" font-family="Arial">4. Baştan başla</text><rect x="670" y="170" width="450" height="390" rx="18" fill="#eff6ff" stroke="#2563eb" stroke-width="2"/><text x="688" y="204" font-size="24" font-weight="700" fill="#0f172a" font-family="Arial">RCZ</text><text x="688" y="230" font-size="22" fill="#334155" font-family="Arial">1. İlk külçeyi çek</text><text x="688" y="256" font-size="22" fill="#334155" font-family="Arial">2. Yeni polisilikon ekle</text><text x="688" y="282" font-size="22" fill="#334155" font-family="Arial">3. Yeniden çek</text><text x="688" y="308" font-size="22" fill="#334155" font-family="Arial">4. 6–10 külçeye kadar tekrarla</text><line x1="150" y1="480" x2="430" y2="480" stroke="#dc2626" stroke-width="8"/><line x1="740" y1="480" x2="1040" y2="480" stroke="#16a34a" stroke-width="8"/></svg>