<svg xmlns="http://www.w3.org/2000/svg" width="1200" height="700" viewBox="0 0 1200 700"><defs><marker id="arrow" viewBox="0 0 10 10" refX="9" refY="5" markerWidth="8" markerHeight="8" orient="auto"><path d="M0 0 L10 5 L0 10 z" fill="#334155"/></marker><marker id="arrowB" viewBox="0 0 10 10" refX="9" refY="5" markerWidth="8" markerHeight="8" orient="auto"><path d="M0 0 L10 5 L0 10 z" fill="#2563eb"/></marker><marker id="arrowG" viewBox="0 0 10 10" refX="9" refY="5" markerWidth="8" markerHeight="8" orient="auto"><path d="M0 0 L10 5 L0 10 z" fill="#16a34a"/></marker></defs><rect width="1200" height="700" fill="#f8fafc"/><rect x="24" y="24" width="1152" height="652" rx="24" fill="white" stroke="#cbd5e1" stroke-width="2"/><text x="60" y="60" font-size="34" font-weight="700" fill="#0f172a" font-family="Arial">Czochralski fırını</text><text x="60" y="92" font-size="22" fill="#64748b" font-family="Arial">Eriyikten tek kristal çekme</text><rect x="350" y="170" width="500" height="350" rx="30" fill="#111827" stroke="#1f2937" stroke-width="4"/><ellipse cx="600" cy="380" rx="180" ry="55" fill="#fb923c" opacity="0.8"/><rect x="430" y="310" width="340" height="110" rx="28" fill="#374151" opacity="0.45"/><rect x="575" y="100" width="50" height="160" rx="20" fill="#cbd5e1"/><path d="M600 260 L560 380 L640 380 Z" fill="#e5e7eb" stroke="#94a3b8" stroke-width="3"/><line x1="600" y1="260" x2="600" y2="140" stroke="#2563eb" stroke-width="5" marker-end="url(#arrowB)"/><text x="620" y="145" font-size="22" fill="#2563eb" font-family="Arial">Çekilen kristal</text></svg>