<svg xmlns="http://www.w3.org/2000/svg" width="1200" height="700" viewBox="0 0 1200 700"><defs><marker id="arrow" viewBox="0 0 10 10" refX="9" refY="5" markerWidth="8" markerHeight="8" orient="auto"><path d="M0 0 L10 5 L0 10 z" fill="#334155"/></marker><marker id="arrowB" viewBox="0 0 10 10" refX="9" refY="5" markerWidth="8" markerHeight="8" orient="auto"><path d="M0 0 L10 5 L0 10 z" fill="#2563eb"/></marker><marker id="arrowG" viewBox="0 0 10 10" refX="9" refY="5" markerWidth="8" markerHeight="8" orient="auto"><path d="M0 0 L10 5 L0 10 z" fill="#16a34a"/></marker></defs><rect width="1200" height="700" fill="#f8fafc"/><rect x="24" y="24" width="1152" height="652" rx="24" fill="white" stroke="#cbd5e1" stroke-width="2"/><text x="60" y="60" font-size="34" font-weight="700" fill="#0f172a" font-family="Arial">Gömülü ark ocağı</text><text x="60" y="92" font-size="22" fill="#64748b" font-family="Arial">Kuvars + karbon + yüksek akım → erimiş silikon</text><polygon points="260,180 940,180 1020,520 180,520" fill="#1f2937" stroke="#111827" stroke-width="4"/><rect x="245" y="150" width="710" height="40" rx="10" fill="#475569"/><rect x="330" y="110" width="48" height="220" rx="16" fill="#374151"/><line x1="354" y1="330" x2="354" y2="410" stroke="#f59e0b" stroke-width="8"/><line x1="354" y1="330" x2="310" y2="400" stroke="#f59e0b" stroke-width="5"/><line x1="354" y1="330" x2="398" y2="400" stroke="#f59e0b" stroke-width="5"/><rect x="520" y="110" width="48" height="220" rx="16" fill="#374151"/><line x1="544" y1="330" x2="544" y2="410" stroke="#f59e0b" stroke-width="8"/><line x1="544" y1="330" x2="500" y2="400" stroke="#f59e0b" stroke-width="5"/><line x1="544" y1="330" x2="588" y2="400" stroke="#f59e0b" stroke-width="5"/><rect x="710" y="110" width="48" height="220" rx="16" fill="#374151"/><line x1="734" y1="330" x2="734" y2="410" stroke="#f59e0b" stroke-width="8"/><line x1="734" y1="330" x2="690" y2="400" stroke="#f59e0b" stroke-width="5"/><line x1="734" y1="330" x2="778" y2="400" stroke="#f59e0b" stroke-width="5"/><rect x="300" y="210" width="600" height="120" fill="#92400e" opacity="0.35"/><path d="M250 520 C380 460,820 460,950 520" fill="#f97316" stroke="#fb923c" stroke-width="4"/><text x="95" y="235" font-size="22" fill="#334155" font-family="Arial">Kuvars + karbon girişi</text><text x="850" y="575" font-size="22" fill="#334155" font-family="Arial">Erimiş silikon</text></svg>