<svg xmlns="http://www.w3.org/2000/svg" width="1200" height="700" viewBox="0 0 1200 700"><defs><marker id="arrow" viewBox="0 0 10 10" refX="9" refY="5" markerWidth="8" markerHeight="8" orient="auto"><path d="M0 0 L10 5 L0 10 z" fill="#334155"/></marker><marker id="arrowB" viewBox="0 0 10 10" refX="9" refY="5" markerWidth="8" markerHeight="8" orient="auto"><path d="M0 0 L10 5 L0 10 z" fill="#2563eb"/></marker><marker id="arrowG" viewBox="0 0 10 10" refX="9" refY="5" markerWidth="8" markerHeight="8" orient="auto"><path d="M0 0 L10 5 L0 10 z" fill="#16a34a"/></marker></defs><rect width="1200" height="700" fill="#f8fafc"/><rect x="24" y="24" width="1152" height="652" rx="24" fill="white" stroke="#cbd5e1" stroke-width="2"/><text x="60" y="60" font-size="34" font-weight="700" fill="#0f172a" font-family="Arial">Siemens ve FBR karşılaştırması</text><text x="60" y="92" font-size="22" fill="#64748b" font-family="Arial">Aynı hedef, farklı fabrika mantığı</text><rect x="80" y="170" width="450" height="380" rx="18" fill="#fff7ed" stroke="#f59e0b" stroke-width="2"/><text x="98" y="204" font-size="24" font-weight="700" fill="#0f172a" font-family="Arial">Siemens</text><text x="98" y="230" font-size="22" fill="#334155" font-family="Arial">Sıcak tohum çubuklar</text><text x="98" y="256" font-size="22" fill="#334155" font-family="Arial">Parti usulü 5–7 gün</text><text x="98" y="282" font-size="22" fill="#334155" font-family="Arial">Büyük polisilikon çubuklar</text><text x="98" y="308" font-size="22" fill="#334155" font-family="Arial">60–80 kWh/kg</text><rect x="670" y="170" width="450" height="380" rx="18" fill="#eff6ff" stroke="#2563eb" stroke-width="2"/><text x="688" y="204" font-size="24" font-weight="700" fill="#0f172a" font-family="Arial">FBR</text><text x="688" y="230" font-size="22" fill="#334155" font-family="Arial">Akışkan yatakta tohum parçacıklar</text><text x="688" y="256" font-size="22" fill="#334155" font-family="Arial">Sürekli çalışma</text><text x="688" y="282" font-size="22" fill="#334155" font-family="Arial">Küçük granüller</text><text x="688" y="308" font-size="22" fill="#334155" font-family="Arial">15–25 kWh/kg</text><rect x="190" y="295" width="28" height="170" rx="14" fill="#9ca3af"/><rect x="260" y="295" width="28" height="170" rx="14" fill="#9ca3af"/><rect x="740" y="310" width="140" height="120" rx="24" fill="#e0f2fe" stroke="#2563eb" stroke-width="3"/><circle cx="730" cy="330" r="11" fill="#60a5fa" stroke="#2563eb" stroke-width="2"/><circle cx="762" cy="330" r="11" fill="#60a5fa" stroke="#2563eb" stroke-width="2"/><circle cx="794" cy="330" r="11" fill="#60a5fa" stroke="#2563eb" stroke-width="2"/><circle cx="826" cy="330" r="11" fill="#60a5fa" stroke="#2563eb" stroke-width="2"/><circle cx="858" cy="330" r="11" fill="#60a5fa" stroke="#2563eb" stroke-width="2"/><circle cx="730" cy="362" r="11" fill="#60a5fa" stroke="#2563eb" stroke-width="2"/><circle cx="762" cy="362" r="11" fill="#60a5fa" stroke="#2563eb" stroke-width="2"/><circle cx="794" cy="362" r="11" fill="#60a5fa" stroke="#2563eb" stroke-width="2"/><circle cx="826" cy="362" r="11" fill="#60a5fa" stroke="#2563eb" stroke-width="2"/><circle cx="858" cy="362" r="11" fill="#60a5fa" stroke="#2563eb" stroke-width="2"/><circle cx="730" cy="394" r="11" fill="#60a5fa" stroke="#2563eb" stroke-width="2"/><circle cx="762" cy="394" r="11" fill="#60a5fa" stroke="#2563eb" stroke-width="2"/></svg>