<svg xmlns="http://www.w3.org/2000/svg" width="1200" height="700" viewBox="0 0 1200 700"><defs><marker id="arrow" viewBox="0 0 10 10" refX="9" refY="5" markerWidth="8" markerHeight="8" orient="auto"><path d="M0 0 L10 5 L0 10 z" fill="#334155"/></marker><marker id="arrowB" viewBox="0 0 10 10" refX="9" refY="5" markerWidth="8" markerHeight="8" orient="auto"><path d="M0 0 L10 5 L0 10 z" fill="#2563eb"/></marker><marker id="arrowG" viewBox="0 0 10 10" refX="9" refY="5" markerWidth="8" markerHeight="8" orient="auto"><path d="M0 0 L10 5 L0 10 z" fill="#16a34a"/></marker></defs><rect width="1200" height="700" fill="#f8fafc"/><rect x="24" y="24" width="1152" height="652" rx="24" fill="white" stroke="#cbd5e1" stroke-width="2"/><text x="60" y="60" font-size="34" font-weight="700" fill="#0f172a" font-family="Arial">Kumdan polisilikona tam akış</text><text x="60" y="92" font-size="22" fill="#64748b" font-family="Arial">Dört ana endüstriyel durak</text><rect x="50" y="250" width="220" height="110" rx="18" fill="#fff7ed" stroke="#f59e0b" stroke-width="2"/><text x="68" y="284" font-size="24" font-weight="700" fill="#0f172a" font-family="Arial">Kuvars / SiO₂</text><text x="68" y="310" font-size="22" fill="#334155" font-family="Arial">Madenden yüksek saflıklı cevher</text><rect x="330" y="250" width="220" height="110" rx="18" fill="#fef2f2" stroke="#dc2626" stroke-width="2"/><text x="348" y="284" font-size="24" font-weight="700" fill="#0f172a" font-family="Arial">MG-Si</text><text x="348" y="310" font-size="22" fill="#334155" font-family="Arial">Ark ocağında indirgeme</text><rect x="610" y="250" width="220" height="110" rx="18" fill="#eff6ff" stroke="#2563eb" stroke-width="2"/><text x="628" y="284" font-size="24" font-weight="700" fill="#0f172a" font-family="Arial">TCS + damıtma</text><text x="628" y="310" font-size="22" fill="#334155" font-family="Arial">Gaz fazına geçiş ve ayırma</text><rect x="890" y="250" width="220" height="110" rx="18" fill="#f0fdf4" stroke="#16a34a" stroke-width="2"/><text x="908" y="284" font-size="24" font-weight="700" fill="#0f172a" font-family="Arial">Polisilikon</text><text x="908" y="310" font-size="22" fill="#334155" font-family="Arial">Siemens veya FBR çıkışı</text><line x1="270" y1="305" x2="330" y2="305" stroke="#334155" stroke-width="4" marker-end="url(#arrow)" /><line x1="550" y1="305" x2="610" y2="305" stroke="#334155" stroke-width="4" marker-end="url(#arrow)" /><line x1="830" y1="305" x2="890" y2="305" stroke="#334155" stroke-width="4" marker-end="url(#arrow)" /></svg>