<svg xmlns="http://www.w3.org/2000/svg" width="1200" height="700" viewBox="0 0 1200 700"><defs><marker id="arrow" viewBox="0 0 10 10" refX="9" refY="5" markerWidth="8" markerHeight="8" orient="auto"><path d="M0 0 L10 5 L0 10 z" fill="#334155"/></marker><marker id="arrowB" viewBox="0 0 10 10" refX="9" refY="5" markerWidth="8" markerHeight="8" orient="auto"><path d="M0 0 L10 5 L0 10 z" fill="#2563eb"/></marker><marker id="arrowG" viewBox="0 0 10 10" refX="9" refY="5" markerWidth="8" markerHeight="8" orient="auto"><path d="M0 0 L10 5 L0 10 z" fill="#16a34a"/></marker></defs><rect width="1200" height="700" fill="#f8fafc"/><rect x="24" y="24" width="1152" height="652" rx="24" fill="white" stroke="#cbd5e1" stroke-width="2"/><text x="60" y="60" font-size="34" font-weight="700" fill="#0f172a" font-family="Arial">Silikon saflık merdiveni</text><text x="60" y="92" font-size="22" fill="#64748b" font-family="Arial">Kumdan güneş kalitesine uzanan sıçrama</text><rect x="90" y="430" width="220" height="160" rx="18" fill="#fff7ed" stroke="#f59e0b" stroke-width="2"/><text x="108" y="464" font-size="24" font-weight="700" fill="#0f172a" font-family="Arial">Plaj kumu</text><text x="108" y="490" font-size="22" fill="#334155" font-family="Arial">~%95–99</text><text x="108" y="516" font-size="22" fill="#334155" font-family="Arial">Cam, inşaat</text><rect x="340" y="340" width="220" height="160" rx="18" fill="#fef2f2" stroke="#dc2626" stroke-width="2"/><text x="358" y="374" font-size="24" font-weight="700" fill="#0f172a" font-family="Arial">MG-Si</text><text x="358" y="400" font-size="22" fill="#334155" font-family="Arial">%98–99</text><text x="358" y="426" font-size="22" fill="#334155" font-family="Arial">Alaşımlar, kimya</text><rect x="590" y="250" width="220" height="160" rx="18" fill="#f0fdf4" stroke="#16a34a" stroke-width="2"/><text x="608" y="284" font-size="24" font-weight="700" fill="#0f172a" font-family="Arial">SoG-Si</text><text x="608" y="310" font-size="22" fill="#334155" font-family="Arial">%99,9999 (6N)</text><text x="608" y="336" font-size="22" fill="#334155" font-family="Arial">Güneş hücreleri</text><rect x="840" y="160" width="220" height="160" rx="18" fill="#eef2ff" stroke="#7c3aed" stroke-width="2"/><text x="858" y="194" font-size="24" font-weight="700" fill="#0f172a" font-family="Arial">EG-Si</text><text x="858" y="220" font-size="22" fill="#334155" font-family="Arial">%99,999999999 (11N)</text><text x="858" y="246" font-size="22" fill="#334155" font-family="Arial">Çipler</text><line x1="310" y1="470" x2="340" y2="420" stroke="#334155" stroke-width="4" marker-end="url(#arrow)" /><line x1="560" y1="380" x2="590" y2="330" stroke="#334155" stroke-width="4" marker-end="url(#arrow)" /><line x1="810" y1="290" x2="840" y2="240" stroke="#334155" stroke-width="4" marker-end="url(#arrow)" /></svg>